<?xml version="1.0" encoding="UTF-8" standalone="no"?>
<!-- Uploaded to: SVG Repo, www.svgrepo.com, Generator: SVG Repo Mixer Tools -->

<svg
   height="800px"
   width="800px"
   version="1.1"
   id="_x32_"
   viewBox="0 0 512 512"
   xml:space="preserve"
   sodipodi:docname="point.svg"
   inkscape:version="1.4.3 (0d15f75042, 2025-12-25)"
   xmlns:inkscape="http://www.inkscape.org/namespaces/inkscape"
   xmlns:sodipodi="http://sodipodi.sourceforge.net/DTD/sodipodi-0.dtd"
   xmlns="http://www.w3.org/2000/svg"
   xmlns:svg="http://www.w3.org/2000/svg"><defs
   id="defs2" /><sodipodi:namedview
   id="namedview2"
   pagecolor="#505050"
   bordercolor="#eeeeee"
   borderopacity="1"
   inkscape:showpageshadow="0"
   inkscape:pageopacity="0"
   inkscape:pagecheckerboard="0"
   inkscape:deskcolor="#505050"
   showguides="true"
   inkscape:zoom="0.4175"
   inkscape:cx="273.05389"
   inkscape:cy="215.56886"
   inkscape:window-width="1133"
   inkscape:window-height="1011"
   inkscape:window-x="26"
   inkscape:window-y="23"
   inkscape:window-maximized="0"
   inkscape:current-layer="_x32_"><sodipodi:guide
     position="62.580838,348.73054"
     orientation="1,0"
     id="guide2"
     inkscape:locked="false" /></sodipodi:namedview>
<style
   type="text/css"
   id="style1">
	.st0{fill:#000000;}
</style>
<g
   id="g2"
   style="fill:#ffffff;fill-opacity:1">
	<path
   class="st0"
   d="M255.995,198.276c-31.884,0-57.724,25.84-57.724,57.724c0,31.875,25.841,57.716,57.724,57.716   c31.874,0,57.716-25.841,57.716-57.716C313.711,224.116,287.87,198.276,255.995,198.276z"
   id="path1"
   style="fill:#ffffff;fill-opacity:1" />
	<path
   class="st0"
   d="M511.13,254.868L410.124,228.04c-5.79-32.047-21.284-60.778-43.346-82.823   c-22.044-22.062-50.784-37.564-82.83-43.346L257.128,0.875c-0.136-0.508-0.598-0.87-1.133-0.87s-0.996,0.362-1.133,0.87   l-26.819,100.997c-32.056,5.781-60.796,21.284-82.831,43.346c-22.071,22.035-37.566,50.785-43.346,82.832L0.869,254.868   C0.363,255.003,0,255.465,0,256c0,0.535,0.363,0.997,0.869,1.133l100.998,26.819c5.78,32.047,21.274,60.787,43.346,82.832   c22.035,22.062,50.775,37.555,82.822,43.346l26.828,100.997c0.136,0.507,0.598,0.869,1.133,0.869s0.996-0.362,1.133-0.869   l26.828-100.997c32.038-5.79,60.777-21.284,82.821-43.346c22.062-22.044,37.556-50.785,43.346-82.822l101.006-26.828   c0.508-0.136,0.87-0.598,0.87-1.133C512,255.465,511.637,255.003,511.13,254.868z M337.621,337.626   c-20.956,20.921-49.687,33.796-81.626,33.814c-31.948-0.018-60.669-12.893-81.626-33.814   c-20.929-20.957-33.804-49.688-33.814-81.626c0.01-31.947,12.884-60.669,33.814-81.626c20.957-20.921,49.679-33.805,81.626-33.814   c31.938,0.008,60.67,12.893,81.626,33.814c20.921,20.957,33.796,49.679,33.814,81.626   C371.417,287.938,358.542,316.669,337.621,337.626z"
   id="path2"
   style="fill:#ffffff;fill-opacity:1" />
</g>
</svg>
